PathFileType	4	(X/Y/Z)	C:/Users/Carlo/Dropbox/Carlos/SARAH/CongressoMarcha2025/WorkshopOpenSim/C3D/Caso03/pyCGM2 Static.c3d.trc
DataRate	CameraRate	NumFrames	NumMarkers	Units	OrigDataRate	OrigDataStartFrame	OrigNumFrames
100.000000	100.000000	3	128	mm	100.000000	158	422
Frame#	Time	LASI			RASI			LPSI			RPSI			LTHI			LTHAP			LTHAD			LKNE			LKNM			LTIB			LTIAP			LTIAD			LANK			LMED			LHEE			LTOE			RTHI			RTHAP			RTHAD			RKNE			RKNM			RTIB			RTIAP			RTIAD			RANK			RMED			RHEE			RTOE			PELO			PELA			PELL			PELP			LFEO			LFEA			LFEL			LFEP			LTIO			LTIA			LTIL			LTIP			LFOO			LFOA			LFOL			LFOP			LTOO			LTOA			LTOL			LTOP			RFEO			RFEA			RFEL			RFEP			RTIO			RTIA			RTIL			RTIP			RFOO			RFOA			RFOL			RFOP			RTOO			RTOA			RTOL			RTOP			PELVIS_CGM_2.3O			PELVIS_CGM_2.3A			PELVIS_CGM_2.3L			PELVIS_CGM_2.3P			LFEMUR_CGM_2.3O			LFEMUR_CGM_2.3A			LFEMUR_CGM_2.3L			LFEMUR_CGM_2.3P			LTIBIA_CGM_2.3O			LTIBIA_CGM_2.3A			LTIBIA_CGM_2.3L			LTIBIA_CGM_2.3P			LFOOT_CGM_2.3O			LFOOT_CGM_2.3A			LFOOT_CGM_2.3L			LFOOT_CGM_2.3P			LTOES_CGM_2.3O			LTOES_CGM_2.3A			LTOES_CGM_2.3L			LTOES_CGM_2.3P			RFEMUR_CGM_2.3O			RFEMUR_CGM_2.3A			RFEMUR_CGM_2.3L			RFEMUR_CGM_2.3P			RTIBIA_CGM_2.3O			RTIBIA_CGM_2.3A			RTIBIA_CGM_2.3L			RTIBIA_CGM_2.3P			RFOOT_CGM_2.3O			RFOOT_CGM_2.3A			RFOOT_CGM_2.3L			RFOOT_CGM_2.3P			RTOES_CGM_2.3O			RTOES_CGM_2.3A			RTOES_CGM_2.3L			RTOES_CGM_2.3P			LHipAngles			LKneeAngles			LAbsAnkleAngle			LAnkleAngles			RHipAngles			RKneeAngles			RAnkleAngles			RAbsAnkleAngle			LPelvisAngles			RPelvisAngles			LFootProgressAngles			RFootProgressAngles			LHipAngles_CGM_2.3			LKneeAngles_CGM_2.3			LAnkleAngles_CGM_2.3			RHipAngles_CGM_2.3			RKneeAngles_CGM_2.3			RAnkleAngles_CGM_2.3			LFootProgressAngles_CGM_2.3			RFootProgressAngles_CGM_2.3			LPelvisAngles_CGM_2.3			RPelvisAngles_CGM_2.3			LHJC_CGM_2.3			LKJC_CGM_2.3			RHJC_CGM_2.3			RKJC_CGM_2.3			LAJC_CGM_2.3			RAJC_CGM_2.3			
		X1	Y1	Z1	X2	Y2	Z2	X3	Y3	Z3	X4	Y4	Z4	X5	Y5	Z5	X6	Y6	Z6	X7	Y7	Z7	X8	Y8	Z8	X9	Y9	Z9	X10	Y10	Z10	X11	Y11	Z11	X12	Y12	Z12	X13	Y13	Z13	X14	Y14	Z14	X15	Y15	Z15	X16	Y16	Z16	X17	Y17	Z17	X18	Y18	Z18	X19	Y19	Z19	X20	Y20	Z20	X21	Y21	Z21	X22	Y22	Z22	X23	Y23	Z23	X24	Y24	Z24	X25	Y25	Z25	X26	Y26	Z26	X27	Y27	Z27	X28	Y28	Z28	X29	Y29	Z29	X30	Y30	Z30	X31	Y31	Z31	X32	Y32	Z32	X33	Y33	Z33	X34	Y34	Z34	X35	Y35	Z35	X36	Y36	Z36	X37	Y37	Z37	X38	Y38	Z38	X39	Y39	Z39	X40	Y40	Z40	X41	Y41	Z41	X42	Y42	Z42	X43	Y43	Z43	X44	Y44	Z44	X45	Y45	Z45	X46	Y46	Z46	X47	Y47	Z47	X48	Y48	Z48	X49	Y49	Z49	X50	Y50	Z50	X51	Y51	Z51	X52	Y52	Z52	X53	Y53	Z53	X54	Y54	Z54	X55	Y55	Z55	X56	Y56	Z56	X57	Y57	Z57	X58	Y58	Z58	X59	Y59	Z59	X60	Y60	Z60	X61	Y61	Z61	X62	Y62	Z62	X63	Y63	Z63	X64	Y64	Z64	X65	Y65	Z65	X66	Y66	Z66	X67	Y67	Z67	X68	Y68	Z68	X69	Y69	Z69	X70	Y70	Z70	X71	Y71	Z71	X72	Y72	Z72	X73	Y73	Z73	X74	Y74	Z74	X75	Y75	Z75	X76	Y76	Z76	X77	Y77	Z77	X78	Y78	Z78	X79	Y79	Z79	X80	Y80	Z80	X81	Y81	Z81	X82	Y82	Z82	X83	Y83	Z83	X84	Y84	Z84	X85	Y85	Z85	X86	Y86	Z86	X87	Y87	Z87	X88	Y88	Z88	X89	Y89	Z89	X90	Y90	Z90	X91	Y91	Z91	X92	Y92	Z92	X93	Y93	Z93	X94	Y94	Z94	X95	Y95	Z95	X96	Y96	Z96	X97	Y97	Z97	X98	Y98	Z98	X99	Y99	Z99	X100	Y100	Z100	X101	Y101	Z101	X102	Y102	Z102	X103	Y103	Z103	X104	Y104	Z104	X105	Y105	Z105	X106	Y106	Z106	X107	Y107	Z107	X108	Y108	Z108	X109	Y109	Z109	X110	Y110	Z110	X111	Y111	Z111	X112	Y112	Z112	X113	Y113	Z113	X114	Y114	Z114	X115	Y115	Z115	X116	Y116	Z116	X117	Y117	Z117	X118	Y118	Z118	X119	Y119	Z119	X120	Y120	Z120	X121	Y121	Z121	X122	Y122	Z122	X123	Y123	Z123	X124	Y124	Z124	X125	Y125	Z125	X126	Y126	Z126	X127	Y127	Z127	X128	Y128	Z128	

159	1.58	307.5621948242189	988.8010253906255	316.1553955078126	309.6412963867189	977.573608398438	53.05928421020511	503.7108154296877	993.4230957031255	235.5033264160157	505.1958007812502	990.4321899414067	133.1967926025391	341.6590881347657	651.6895141601565	372.1277160644532	255.7313995361329	786.5187377929692	317.8622436523439	239.2483978271486	622.6119384765627	310.4797668457032	326.040008544922	490.4606933593752	364.6535644531251	304.788543701172	470.1268005371096	240.1431427001954	401.483337402344	262.7890625000001	366.6150817871095	289.4419250488282	376.489959716797	296.4363403320314	347.858856201172	207.9234619140626	291.6698303222657	431.1620788574221	88.05657196044925	348.4427795410157	392.3923950195315	93.1574630737305	264.5379028320314	466.2010192871096	57.75632095336917	299.3396911621095	277.6137084960939	56.02338409423831	339.299774169922	350.8648071289064	686.8042602539065	1.352076172828675	255.8955841064454	777.7636718750005	69.91638946533206	243.1315460205079	611.6641845703127	71.58304595947268	314.0169982910157	474.8166503906252	28.94368553161623	293.1143798828126	468.164733886719	143.6498565673829	372.3755493164064	302.9607238769532	13.0425672531128	310.2760314941407	317.0511779785157	102.9519729614258	344.6854248046876	184.4692382812501	92.75611114501956	419.3118896484377	78.85267639160159	45.48872756958009	390.5762939453127	93.1061706542969	131.7030944824219	463.3614501953127	50.79078292846683	95.82440185546878	274.1516113281251	47.50455856323244	65.88555908203128	353.8408508300782	896.7734985351567	188.6524810791016	191.8799285888672	889.494750976563	187.6831665039063	352.5608215332032	903.685668945313	350.6272583007814	346.6102905273439	1058.589721679688	181.689926147461	313.6634216308595	486.4541015625002	308.131317138672	-91.55999755859378	535.6162719726565	393.377380371094	402.646911621094	515.2604980468752	714.507995605469	355.6842651367189	899.5437011718755	269.6478881835939	413.1529846191409	90.42601013183597	309.4677124023439	67.8348083496094	4.196449279785158	463.7856750488284	562.5373535156252	129.1551818847657	665.3870849609377	318.6338195800782	466.668884277344	308.1980895996095	286.9871215820314	78.4209899902344	349.7309570312501	281.5151977539064	263.2067871093751	331.9201660156251	325.129608154297	96.97845458984381	530.545104980469	468.668640136719	80.09043121337893	311.2341613769532	226.4266204833986	77.86448669433597	362.5632324218751	224.6026306152345	139.4597930908204	356.6263427734376	239.1407928466798	84.05027770996097	422.834655761719	286.9871520996095	78.4209899902344	349.7309570312501	300.7236328125001	473.4071044921877	84.86818695068362	-108.9068908691407	528.544616699219	-11.11212921142578	202.6249084472657	463.0051879882815	497.564147949219	351.9974975585939	894.003295898438	107.6571273803712	405.8793945312502	85.51550292968753	85.7897872924805	51.03005981445315	-10.92578125	-16.53867340087891	306.8948974609376	59.55490875244143	453.5100097656252	306.0089721679689	453.9108886718752	84.91450500488284	278.7776184082032	72.09666442871097	52.74660491943362	273.7426147460939	256.0325927734376	64.37700653076175	250.2347106933595	59.82407379150393	234.4819641113282	460.8572387695315	75.25914001464847	81.55713653564456	218.0844268798829	71.04253387451175	43.14305877685548	216.4060821533204	132.3545074462891	47.01985931396486	208.5701293945314	66.95167541503909	103.7214965820313	278.7776489257814	72.09669494628909	52.74656677246097	362.7850036621095	911.0830078125005	189.8750000000001	202.4205322265626	903.856323242188	188.930404663086	361.5324707031251	917.9143066406255	350.2546997070314	355.6052856445314	1071.3046875	182.9943389892579	316.4349975585939	481.2720031738284	308.1419982910157	-111.3697204589844	533.6629638671877	373.5990295410157	385.828796386719	511.5252685546877	737.461853027344	363.4874267578126	912.996704101563	270.1138610839845	413.0339965820315	90.45359802246097	309.5310058593751	54.7364196777344	2.465454101562501	470.631042480469	569.122985839844	130.3456115722657	678.4715576171877	316.4350585937501	481.2719726562502	308.1419067382814	281.7760009765626	76.54730224609378	325.6849975585939	278.1139221191407	262.0121459960939	316.6062622070314	320.1894531250001	86.18804168701175	507.1361083984377	463.4461059570315	78.24734497070315	287.1347961425782	221.2189941406251	75.98059844970706	338.5350036621095	219.9983062744142	137.8021392822266	335.508758544922	234.0234680175782	79.19417572021487	399.0186462402346	281.7756347656251	76.54727935791018	325.6849670410157	303.7130126953126	471.5629882812502	85.45559692382815	-127.6623535156251	533.2377929687502	10.60910797119141	226.2617340087892	457.8528137207034	520.5461425781252	362.083221435547	909.1687011718755	109.6356048583985	405.976013183594	85.64430236816409	85.89089965820315	34.19003295898439	-12.99461364746094	-21.05097961425782	302.4945068359376	58.6565971374512	470.5391540527346	303.7127075195314	471.5627441406252	85.45594787597659	270.1289978027345	70.46620178222659	76.38590240478518	265.9069213867189	261.7054748535157	82.12669372558597	240.0741119384767	64.13239288330081	265.2769470214845	459.079040527344	73.73196411132815	106.5596923828126	207.1459960937501	69.377799987793	66.32759857177737	205.7386474609376	133.1241455078126	68.24119567871097	197.1277160644532	67.26653289794925	129.2912139892579	270.1292724609376	70.46638488769534	76.38552093505862	-2.909638166427613	-12.5453863143921	8.324228286743168	0.6770708560943606	-10.50773525238037	20.51553916931153	0	0	13.23516464233399	0.008213042281568054	10.76855087280274	13.47683429718018	-5.449126720428469	-12.34445571899415	9.571982383728031	-1.982848763465882	-2.272084951400758	22.25640296936036	0.006953133270144466	6.09925746917725	14.09793376922608	0	0	14.01647949218751	2.461310863494874	0.3428591489791871	2.558492422103883	-2.461310863494874	-0.3428591489791871	2.558492422103883	-5.625651359558107	-11.96305656433106	-89.47352600097659	-3.661707162857057	-8.990083694458011	-89.00498199462893	-2.627899885177613	-9.37831020355225	8.745739936828617	1.477009892463685	-13.72889995574952	20.59350013732911	-2.715260028839112	10.94950008392334	13.2548999786377	-5.493050098419191	-8.991709709167484	10.22840023040772	-0.7920140027999882	-5.325759887695314	22.64169883728028	-1.897979974746705	6.036419391632084	13.76280021667481	2.864330053329469	-168.020004272461	-90.53620147705081	1.740569949150086	-170.9279937744141	-90.98999786376956	177.5610046386719	0.447484999895096	-177.4170074462891	-177.5610046386719	-0.447484999895096	-177.4170074462891	363.488006591797	912.9970092773442	270.1140136718751	316.4349975585939	481.2720031738284	308.1419982910157	362.0830078125001	909.1680297851567	109.6360015869141	303.7130126953126	471.5629882812502	85.45559692382815	413.0339965820315	90.45359802246097	309.5310058593751	405.976013183594	85.64430236816409	85.89089965820315	
160	1.59	307.6841735839845	988.773803710938	316.3425903320314	309.6731262207032	977.5801391601567	53.12863540649417	503.7368164062502	993.4484863281255	235.6012725830079	505.2832946777346	990.4453125000005	133.2908172607422	341.6531066894532	651.6826171875002	372.1586303710939	255.7494049072267	786.5093383789067	317.8925781250001	239.3058624267579	622.6582641601565	310.5306396484376	325.9814453125001	490.5189208984377	364.6427612304689	304.7397460937501	470.0780029296877	240.2288055419923	401.4985046386721	262.8367309570314	366.6525878906251	289.563446044922	376.3832092285157	296.6373291015626	347.8666992187501	207.9220733642579	291.7130126953126	431.1713562011721	88.07470703125003	348.4625549316407	392.4166259765627	93.19594573974612	264.5260314941407	466.2091369628909	57.77123641967776	299.3197326660157	277.5735473632814	56.02804183959964	339.2657470703126	350.9744873046876	686.8146972656252	1.369512915611268	255.9807128906251	777.7722167968755	69.94878387451175	243.2013549804689	611.6826782226565	71.56946563720706	314.0738525390626	474.838806152344	28.94696998596193	293.1541442871095	468.1501770019534	143.6239318847657	372.3921203613282	302.9691162109376	13.04087638854981	310.2294311523439	317.0792846679689	102.9382324218751	344.6553039550782	184.4866180419922	92.77989196777347	419.3052368164065	78.87051391601565	45.49758529663087	390.6404418945315	93.09082031250003	131.6951446533204	463.3350219726565	50.80146026611331	95.81244659423831	274.1255493164064	47.51675033569337	65.84742736816409	353.9319458007814	896.7693481445317	188.7522125244141	191.9717712402344	889.4668579101567	187.8389129638672	352.707977294922	903.6576538085942	350.7285156250001	346.6750793457032	1058.585571289063	181.8158721923829	313.6212768554689	486.5298461914065	308.115692138672	-91.52770996093753	535.817321777344	393.2268676757815	402.4685058593752	515.204040527344	714.4441528320315	355.803436279297	899.5280151367192	269.7473144531251	413.1737976074221	90.452995300293	309.4826965332032	67.7557067871094	4.165695190429689	463.7026367187502	562.4519653320315	129.2023162841797	665.5128173828127	318.5941162109376	466.745300292969	308.1839599609376	287.003631591797	78.44155120849612	349.7305603027345	281.5236816406251	263.2268676757814	331.9166870117189	325.122772216797	97.00344848632818	530.5491943359377	468.6898193359377	80.12053680419925	311.2561340332032	226.4415435791017	77.88189697265628	362.5553588867189	224.6148986816407	139.4770050048829	356.617401123047	239.147918701172	84.0691833496094	422.8282165527346	287.003631591797	78.44155883789065	349.7305603027345	300.747039794922	473.421081542969	84.86329650878909	-108.8230285644532	528.627380371094	-11.35195922851563	202.4004821777345	462.9585876464846	497.5028076171877	352.0604553222657	894.0104980468755	107.7571640014649	405.899597167969	85.52092742919925	85.80961608886722	50.98513793945315	-10.93891906738282	-16.30310058593751	307.1170654296876	59.64006042480472	453.5974731445315	306.0321350097657	453.9248046875002	84.9108581542969	278.8018493652345	72.1005554199219	52.75149154663089	273.7727050781251	256.0390625000001	64.34429931640628	250.2331085205079	59.86561584472659	234.4853668212892	460.8776855468752	75.2614440917969	81.58681488037112	218.1099395751954	71.04694366455081	43.13973999023439	216.433563232422	132.3597717285157	47.00400161743165	208.5870361328126	66.96864318847659	103.7176971435547	278.8018798828126	72.10056304931643	52.75149917602542	362.8649902343751	911.0850219726567	189.9810028076172	202.5014190673829	903.8353881835942	189.0605621337891	361.6359863281251	917.9085083007817	350.3612060546876	355.6612548828126	1071.306030273438	183.109115600586	316.4530029296876	481.2739868164065	308.1940002441407	-111.3843383789063	533.712341308594	373.3992004394532	385.5945129394534	511.4926757812502	737.5570068359377	363.5799865722657	912.9953613281255	270.2203369140626	413.0409851074221	90.45300292968753	309.5830078125001	54.87051391601565	2.507080078125001	470.9883728027346	569.427429199219	130.4142456054688	678.390075683594	316.451873779297	481.2738342285159	308.1935119628907	281.7720031738282	76.54949951171878	325.6510009765626	278.1233825683595	262.0159301757814	316.6002807617189	320.0707397460939	86.15895080566409	507.1279907226565	463.4665832519534	78.24829101562503	287.2163391113282	221.2079925537111	75.98320007324222	338.4630126953126	219.9917755126954	137.8052673339844	335.4461059570314	233.9742279052736	79.18634796142581	398.955261230469	281.7727966308595	76.54946136474612	325.6514892578126	303.7300109863282	471.5820007324221	85.44460296630862	-127.5918273925782	533.334655761719	10.35435485839844	226.0190582275392	457.8009338378909	520.4865722656252	362.1504211425782	909.174438476563	109.7420043945313	405.9429931640627	85.65029907226565	85.90889739990237	34.17861938476564	-12.93933105468751	-21.15335083007813	302.3342895507814	58.67295837402347	470.5235900878909	303.7301025390626	471.5820007324221	85.44419860839847	270.1000061035157	70.4746017456055	76.34600067138675	265.8807373046876	261.7139282226564	82.08667755126956	239.9626922607423	64.13991546630862	265.2238769531251	459.0369873046877	73.7348556518555	106.6021041870118	207.1210021972657	69.38739776611331	66.26090240478518	205.7145843505861	133.133773803711	68.17446136474612	197.0752410888673	67.27584075927737	129.2201232910157	270.0999145507814	70.47414398193362	76.34626007080081	-2.901503086090089	-12.50892925262452	8.358045578002933	0.6584652662277224	-10.50837230682373	20.54086494445801	0	0	13.23843097686768	0.008269772864878181	10.75482654571534	13.47956085205079	-5.457265853881838	-12.3976697921753	9.584862709045414	-1.98011326789856	-2.202865839004517	22.26373481750489	0.006980975158512596	6.059347629547123	14.09684467315675	0	0	14.01646232604981	2.452062129974366	0.3230526745319368	2.567790985107423	-2.452062129974366	-0.3230526745319368	2.567790985107423	-5.626503467559816	-11.95598793029786	-89.47054290771487	-3.649952411651613	-8.997834205627445	-89.00543975830081	-2.622720003128053	-9.336319923400882	8.764579772949222	1.480780005455018	-13.81009960174561	20.59970092773438	-2.73587989807129	11.03190040588379	13.25959968566895	-5.506529808044435	-9.0323600769043	10.2431001663208	-0.7863209843635564	-5.307650089263918	22.6436996459961	-1.895699977874757	6.030389785766605	13.75599956512452	2.855070114135743	-168.0570068359376	-90.53569793701175	1.741250038146974	-170.9040069580079	-90.98889923095706	177.5639953613282	0.4390709996223452	-177.4089965820313	-177.5639953613282	-0.4390709996223452	-177.4089965820313	363.5799865722657	912.995971679688	270.2200012207032	316.4530029296876	481.2739868164065	308.1940002441407	362.1510009765626	909.1749877929692	109.7419967651368	303.7300109863282	471.5820007324221	85.44460296630862	413.0409851074221	90.45300292968753	309.5830078125001	405.9429931640627	85.65029907226565	85.90889739990237	
161	1.6	307.6880493164064	988.7529296875005	316.378631591797	309.8077087402345	977.5414428710942	53.25886917114261	503.7720031738284	993.4489746093755	235.7384490966798	505.3228149414065	990.4548950195317	133.4360046386719	341.611297607422	651.6716308593752	372.1853332519532	255.7583007812501	786.4961547851567	317.9039001464845	239.2365264892579	622.6053466796877	310.5041809082032	326.0763549804689	490.5010681152346	364.7582092285157	304.7648010253907	470.0895690917971	240.1773681640626	401.4617309570315	262.8035278320314	366.6401367187501	289.4725036621095	376.426727294922	296.5920715332032	347.847869873047	207.9535522460939	291.7318115234376	431.1654968261721	88.05739593505862	348.4672851562501	392.4099121093752	93.17053222656253	264.540985107422	466.2381896972659	57.82654571533206	299.378387451172	277.5919494628907	56.04243087768558	339.2669067382814	351.0318908691407	686.811950683594	1.419075846672059	256.0639648437501	777.7597045898442	69.99769592285159	243.2275238037111	611.6884765625002	71.59362792968753	314.1314086914064	474.8513488769534	28.90031623840333	293.1172790527345	468.1580200195315	143.629623413086	372.4145812988282	302.9839172363282	13.04660034179688	310.2366943359376	317.048553466797	102.9143295288087	344.7794799804689	184.4512329101563	92.7333679199219	419.3005676269534	78.87575531005862	45.49729156494142	390.5575256347659	93.12660217285159	131.7322235107422	463.3130187988284	50.80788040161136	95.81732177734378	274.1483764648439	47.51353073120119	65.8776550292969	354.0158996582032	896.7485961914067	188.8648529052735	192.057586669922	889.4147949218755	187.8726196289063	352.7110290527345	903.6503295898442	350.8399353027345	346.7312011718751	1058.562866210938	181.9112854003907	313.8479309082032	486.4942626953127	308.2037353515626	-91.5275573730469	535.530700683594	392.3815917968752	401.7487792968752	515.296081542969	714.7301025390627	355.8470153808595	899.5144042968755	269.8606262207032	413.165710449219	90.43216705322268	309.488250732422	67.79241943359378	4.325492858886721	463.7292480468752	562.5029296875002	129.0348358154297	665.4314575195315	318.8098144531251	466.7070617675784	308.2679138183595	286.9850158691407	78.3874206542969	349.6929931640626	281.4874572753907	263.1798706054689	331.9585266113282	325.0476989746095	96.87475585937506	530.5311279296877	468.6824951171877	80.10584259033206	311.2737731933595	226.419158935547	77.81461334228518	362.4994506835939	224.586639404297	139.412094116211	356.5879211425782	239.1067047119142	83.97709655761722	422.7788085937502	286.9849853515626	78.38740539550784	349.6930541992189	300.825408935547	473.4117126464846	84.8210372924805	-108.7714843750001	528.6939086914065	-11.21688842773438	202.6336059570314	462.787780761719	497.4886779785159	352.1847229003907	893.982788085938	107.8690795898438	405.8677062988284	85.53581237792972	85.79868316650393	51.04580688476565	-10.81293487548828	-16.54510498046876	306.8482055664064	59.64661407470706	453.4680786132815	306.1056518554689	453.914245605469	84.87020111083987	278.7676086425782	72.10852050781253	52.75242614746097	273.7291259765626	256.0465698242189	64.34737396240237	250.2167510986329	59.87029266357425	234.4888000488282	460.8458557128909	75.27943420410159	81.5705261230469	218.0748443603517	71.05153656005862	43.1463966369629	216.3953704833986	132.3642272949219	47.01134109497072	208.5578918457032	66.97216796875003	103.7251815795899	278.7676391601564	72.10849761962893	52.75243759155276	362.9190063476564	911.0750122070317	190.0749969482422	202.5566253662111	903.8070678710942	189.090560913086	361.6243286132814	917.9182739257817	350.4538574218751	355.6998596191407	1071.294311523438	183.1802825927735	316.4440002441407	481.2720031738284	308.2250061035157	-111.4217834472657	533.715759277344	373.2392883300782	385.3896484375002	511.4474792480471	737.6225585937502	363.6001281738282	912.9957885742192	270.3144836425782	413.039001464844	90.45210266113284	309.5660095214845	54.81314086914065	2.466247558593751	470.826599121094	569.294860839844	130.3380126953126	678.4365234375002	316.4439697265626	481.2716064453127	308.2250061035157	281.7739868164064	76.53980255126956	325.6560058593751	278.1130371093751	262.006805419922	316.6215209960939	320.1051025390626	86.13623809814456	507.1268310546877	463.4614868164065	78.252311706543	287.1885375976564	221.2120056152345	75.96890258789065	338.4790039062501	219.9916992187501	137.7911682128907	335.4675292968751	233.9890289306642	79.16770935058597	398.9692077636721	281.7744445800782	76.53974151611331	325.6565246582032	303.7650146484376	471.5750122070315	85.42549896240237	-127.5459289550782	533.3984985351565	10.3310546875	226.032440185547	457.6934814453127	520.4604492187502	362.2369384765626	909.1542968750005	109.8360443115235	405.9689941406252	85.64099884033206	85.88659667968753	34.20916748046876	-12.93694305419923	-21.20222473144532	302.3346252441407	58.65678787231448	470.4938964843752	303.7655639648439	471.575134277344	85.42469024658206	270.1210021972657	70.47389984130862	76.37529754638675	265.9168090820314	261.7140197753907	82.1006774902344	240.0537414550782	64.15790557861331	265.2649536132814	459.0694580078127	73.72402191162112	106.5606079101563	207.1390075683595	69.39029693603518	66.31359863281253	205.7376098632814	133.1369323730469	68.22205352783206	197.1165924072267	67.28496551513675	129.2767486572266	270.1217651367189	70.47367095947268	76.375358581543	-2.895856618881226	-12.40512561798096	8.341157913208011	0.7253130674362185	-10.64169883728028	20.48576354980469	0	0	13.19900131225587	0.008070192299783233	10.78724479675293	13.44085502624512	-5.47928047180176	-12.3440809249878	9.604278564453129	-1.945956110954286	-2.255524635314942	22.26240348815919	0.006924009881913665	6.104127883911136	14.08166503906251	0	0	14.00019264221192	2.458142042160035	0.3509763777256013	2.577657938003541	-2.458142042160035	-0.3509763777256013	2.577657938003541	-5.60100317001343	-11.93859481811524	-89.45814514160159	-3.650566101074221	-8.992433547973636	-89.00228118896487	-2.609939813613892	-9.335069656372074	8.772930145263675	1.488049983978272	-13.81429958343507	20.60359954833985	-2.727760076522828	11.00150012969971	13.25579929351807	-5.525000095367433	-9.008520126342777	10.25799942016602	-0.7746840119361882	-5.305170059204103	22.65139770507813	-1.902610063552857	6.055009841918949	13.75920009613038	2.850139856338502	-168.0460052490235	-90.54000091552737	1.736289978027345	-170.9250030517579	-90.98570251464847	177.5570068359376	0.4625570178031924	-177.4029998779297	-177.5570068359376	-0.4625570178031924	-177.4029998779297	363.6010131835939	912.995971679688	270.3139953613282	316.4440002441407	481.2720031738284	308.2250061035157	362.2369995117189	909.1550292968755	109.8359985351563	303.7650146484376	471.5750122070315	85.42549896240237	413.039001464844	90.45210266113284	309.5660095214845	405.9689941406252	85.64099884033206	85.88659667968753	
